<mxfile host="app.diagrams.net" modified="2024-07-07T01:47:16.094Z" agent="Mozilla/5.0 (Macintosh; Intel Mac OS X 10_15_7) AppleWebKit/537.36 (KHTML, like Gecko) Chrome/126.0.0.0 Safari/537.36" version="24.6.4" etag="KYWZ66Vb_I8W4QSeN-7x" type="github">
  <diagram name="第 1 页" id="fuIgDHh9US-cUTva4F0P">
    <mxGraphModel>
      <root>
        <mxCell id="0" />
        <mxCell id="1" parent="0" />
      </root>
    </mxGraphModel>
  </diagram>
</mxfile>
